# xmcd CD database file
#
# Track frame offsets:
#	150
#	17820
#	33577
#	47897
#	67087
#	84129
#	102800
#	117187
#	138415
#	150645
#	167145
#	182565
#
# Disc length: 2673 seconds
#
# Revision: 0
# Processed by: cddbd v1.5.2PL0 Copyright (c) Steve Scherf et al.
# Submitted via: CDex 1.51
#
DISCID=980a6f0c
DTITLE=Jodle Birge and Little Big Band - Canada
DYEAR=1993
DGENRE=Country
TTITLE0=Rigtige Venner
TTITLE1=Du Er Den Ene For Mig
TTITLE2=Tre Hvide Duer
TTITLE3=Himmelhunden
TTITLE4=To Brune Øjne
TTITLE5=Medley (Vals)
TTITLE6=Tusind Røde Roser
TTITLE7=Moder Teresa
TTITLE8=Liljer
TTITLE9=En Sang Om Tyrol
TTITLE10=Dejlige Drømmende Øjne
TTITLE11=Skuld Gammel Venskab Ren Forgå
EXTD=YEAR: 1993
EXTT0=
EXTT1=
EXTT2=
EXTT3=
EXTT4=
EXTT5=
EXTT6=
EXTT7=
EXTT8=
EXTT9=
EXTT10=
EXTT11=
PLAYORDER=
